<svg width="23" height="22" viewBox="0 0 23 22" fill="none" xmlns="http://www.w3.org/2000/svg">
<path d="M11.5049 5.38477C8.39941 5.38477 5.89453 7.88965 5.89453 10.9951C5.89453 14.1006 8.39941 16.6055 11.5049 16.6055C14.6104 16.6055 17.1152 14.1006 17.1152 10.9951C17.1152 7.88965 14.6104 5.38477 11.5049 5.38477ZM11.5049 14.6426C9.49805 14.6426 7.85742 13.0068 7.85742 10.9951C7.85742 8.9834 9.49316 7.34766 11.5049 7.34766C13.5166 7.34766 15.1523 8.9834 15.1523 10.9951C15.1523 13.0068 13.5117 14.6426 11.5049 14.6426ZM18.6533 5.15527C18.6533 5.88281 18.0674 6.46387 17.3447 6.46387C16.6172 6.46387 16.0361 5.87793 16.0361 5.15527C16.0361 4.43262 16.6221 3.84668 17.3447 3.84668C18.0674 3.84668 18.6533 4.43262 18.6533 5.15527ZM22.3691 6.4834C22.2861 4.73047 21.8857 3.17773 20.6016 1.89844C19.3223 0.61914 17.7695 0.21875 16.0166 0.130859C14.21 0.0283203 8.79492 0.0283203 6.98828 0.130859C5.24023 0.213867 3.6875 0.614258 2.40332 1.89355C1.11914 3.17285 0.723633 4.72559 0.635742 6.47852C0.533203 8.28516 0.533203 13.7002 0.635742 15.5068C0.71875 17.2598 1.11914 18.8125 2.40332 20.0918C3.6875 21.3711 5.23535 21.7715 6.98828 21.8594C8.79492 21.9619 14.21 21.9619 16.0166 21.8594C17.7695 21.7764 19.3223 21.376 20.6016 20.0918C21.8809 18.8125 22.2813 17.2598 22.3691 15.5068C22.4717 13.7002 22.4717 8.29004 22.3691 6.4834ZM20.0352 17.4453C19.6543 18.4023 18.917 19.1396 17.9551 19.5254C16.5146 20.0967 13.0967 19.9648 11.5049 19.9648C9.91309 19.9648 6.49023 20.0918 5.05469 19.5254C4.09766 19.1445 3.36035 18.4072 2.97461 17.4453C2.40332 16.0049 2.53516 12.5869 2.53516 10.9951C2.53516 9.40332 2.4082 5.98047 2.97461 4.54492C3.35547 3.58789 4.09277 2.85059 5.05469 2.46484C6.49512 1.89355 9.91309 2.02539 11.5049 2.02539C13.0967 2.02539 16.5195 1.89844 17.9551 2.46484C18.9121 2.8457 19.6494 3.58301 20.0352 4.54492C20.6064 5.98535 20.4746 9.40332 20.4746 10.9951C20.4746 12.5869 20.6064 16.0098 20.0352 17.4453Z" fill="white"/>
</svg>
