<?xml version="1.0" encoding="utf-8"?>
<!-- Generator: Adobe Illustrator 27.0.0, SVG Export Plug-In . SVG Version: 6.00 Build 0)  -->
<svg version="1.1" id="Layer_1" xmlns="http://www.w3.org/2000/svg" xmlns:xlink="http://www.w3.org/1999/xlink" x="0px" y="0px"
	 viewBox="0 0 378 65" style="enable-background:new 0 0 378 65;" xml:space="preserve">
<style type="text/css">
	.st0{fill:#FEFFFE;}
</style>
<g>
	<g>
		<path class="st0" d="M230.54,4.1c3.65-0.3,7.35-0.56,10.99-0.08c1.47,0.32,1.76,2.17,1.73,3.43c0.05,16.03,0.01,32.06,0.02,48.09
			c-0.13,1.28,0.41,3.59-1.56,3.64c-3.16,0.32-6.34,0.09-9.51,0.06c-0.77-1.36-1.51-2.75-2.25-4.14c-3.33,1.87-6.47,4.31-10.24,5.19
			c-5.83,0.16-11.46-2.03-16.08-5.5c-7.8-7.95-8.82-21.84-2.12-30.76c4.31-3.47,8.42-8.1,14.48-7.94
			c5.49-1.15,10.85,1.73,13.83,6.27C230.2,16.28,229.33,10.12,230.54,4.1z M216.35,27.87c-3.61,0.4-4.98,3.94-6.17,6.86
			c-1.21,2.96-0.28,6.21,0.59,9.13c2.11,4.27,7.75,5.1,11.99,4.27c2.86-1.08,6.46-2.29,7.3-5.63c1.72-4.43,0.47-9.81-3.15-12.86
			C223.83,27.6,219.92,26.48,216.35,27.87z"/>
	</g>
	<g>
		<path class="st0" d="M283.41,5.12c3.53-1.82,7.58-1.44,11.4-1.16c1.05-0.02,1.91,0.38,2.56,1.2c0.48,3.76,0.11,7.56,0.2,11.34
			c-0.09,14.15,0.2,28.31-0.15,42.46c-3.68,0.41-7.38,0.35-11.08,0.29c-0.73-1.55-1.46-3.09-2.22-4.62
			c-3.74,2.4-7.35,6.05-12.13,5.82c-4.65-0.75-9.25-2.26-13.29-4.68c-3.67-4.27-6.99-9.43-7.14-15.25
			c-0.36-6.1,0.69-12.8,5.08-17.37c4.8-5.74,12.82-8.53,20.11-6.7c2.86,0.78,4.44,3.43,6.45,5.38
			C283.48,16.27,283.22,10.69,283.41,5.12z M270.3,27.71c-6.68,2.71-8.14,12.91-3.72,18.22c6.32,6.1,18.02,1.11,18.69-7.41
			c0.5-3.39-2.59-5.51-4.19-8.08C278.8,26.97,273.94,26.69,270.3,27.71z"/>
	</g>
	<path class="st0" d="M306.26,4.71c4.31-1.32,8.85-0.72,13.27-0.62c0.5,1.74,0.84,3.53,0.76,5.35c-0.05,15.04-0.01,30.08-0.01,45.12
		c-0.01,1.52-0.22,3.02-0.45,4.52c-4.55,0.18-9.2,0.72-13.66-0.5C306.19,40.62,306.01,22.66,306.26,4.71z"/>
	<g>
		<path class="st0" d="M29.12,6.6C39.44,4.71,50.1,4.25,60.5,5.85c3.93,0.45,7.52,2.32,10.83,4.38c2.85,2.61,2.38,6.81,2.31,10.31
			c-0.44,7.94-0.16,16.74-5.55,23.22C57.14,45.5,46,45.25,34.94,45.47c-1.34,0.14-2.92-0.02-3.84,1.2
			c-3.48,3.1-5.14,7.51-7.47,11.41c-1.25,2.46-5.41,2.6-6.87,0.34c-0.3-4.57,0.26-9.16,0.08-13.75c-3.53-0.85-8.66,0.39-10.25-3.86
			c-2.6-7.74-1.34-16.09-0.26-24.01c0.38-1.83,0.87-4.32,3-4.82C15.75,9.46,22.89,9.6,29.12,6.6z M22.93,11.51
			c-4.62,1.04-9.77,1.27-13.6,4.38c-1.21,7.69-1.27,15.54-0.66,23.28c3.08,1.85,7.36,1.37,10.95,1.98
			c0.39,5.43-0.05,10.86-0.14,16.28c1.56-0.94,2.88-2.23,3.42-4.02c1.79-4.58,5.65-7.79,8.55-11.63
			c10.52,0.12,21.03-0.25,31.52-1.02c2.14-0.41,5.24-0.94,5.75-3.48c1.64-5.06,1.66-10.45,2.02-15.71c0.03-3.03,0.49-6.24-0.72-9.11
			c-2.86-1.63-6.19-2.11-9.37-2.81C48.11,7.67,35.28,8.82,22.93,11.51z"/>
	</g>
	<path class="st0" d="M93.62,10.64c3.9-1.39,8.52-0.6,12.68-0.47c1.32,5.26,0.15,11.15,0.54,16.64c5.96-0.05,11.92,0.09,17.88-0.11
		c0.16-5.56-0.39-11.16,0.35-16.69c4.38,0.03,8.8-0.39,13.14,0.35c-0.2,16.27,0.28,32.56-0.24,48.82
		c-4.36,0.22-8.73,0.15-13.09,0.03c-0.36-6.78-0.1-13.58-0.14-20.37c-5.95-0.25-11.91-0.16-17.86-0.1
		c-0.16,6.82,0.13,13.64-0.15,20.45c-4.33,0.21-8.65,0.09-12.98,0.09C93.26,43.09,93.51,26.84,93.62,10.64z"/>
	<path class="st0" d="M148.45,16.86c4.18-0.41,8.39-0.32,12.58-0.06c0.73,8.92-0.39,17.93,0.6,26.82
		c2.44,6.36,13.39,5.74,14.65-1.08c0.5-8.5-0.07-17.03,0.3-25.54c4.29-0.58,8.65-0.58,12.95-0.06c0.27,14.03,0.42,28.1-0.07,42.12
		c-3.33,0.31-6.68,0.34-10-0.05c-0.64-2.09-1.15-4.22-1.52-6.38c-1.66,3.14-4.3,6.21-8.01,6.76c-5.72,1.33-12.56,0.26-16.86-3.95
		c-2.74-4.09-5.1-8.82-4.82-13.88C148.31,33.33,147.98,25.09,148.45,16.86z"/>
	<g>
		<path class="st0" d="M338.54,18.04c5.63-2.2,12.07-2.89,17.89-0.99c2.84,0.84,4.61,3.39,7.03,4.93c6.33,3.8,8.01,12.35,6.47,19.1
			c-10.11,1.07-20.3,0.32-30.44,0.53c-0.48,3.51,3.01,5.21,5.5,6.82c5.1,2.07,10.79,0.3,15.16-2.64c2.63,0.98,4.68,3.11,6.78,4.92
			c-0.09,1.17-0.18,2.35-0.25,3.53c-5.26,3.37-11.23,6.43-17.69,5.71c-5.62-0.66-12.21-1.84-15.54-6.95
			c-1.64-2.58-4.36-4.36-5.62-7.18c-1.97-5.75-1.39-12.14,0.77-17.75C331.69,24.55,335.06,21.18,338.54,18.04z M341.13,32.82
			c5.54,0.01,11.08,0.07,16.62-0.04C356.65,24.2,342.06,24.08,341.13,32.82z"/>
	</g>
	<g>
		<path class="st0" d="M23.54,20.98c1.94-1.23,4.47-0.63,5.9,1.1c0.61,1.93,1.06,4.69-0.85,6.04c-1.64,1.51-4.79,1.83-6.16-0.19
			C20.48,25.98,21.16,22.27,23.54,20.98z M24.12,26.38c0.67-0.05,2.01-0.15,2.68-0.21c0.5-1.3,0.29-2.52-0.61-3.68
			C24.62,23.26,24.22,24.78,24.12,26.38z"/>
	</g>
	<g>
		<path class="st0" d="M38.48,20.89c2.34-0.84,4.42,0.83,6.19,2.13c2.5,5.22-7.59,8.86-9.21,3.44
			C35.11,24.22,36.48,21.83,38.48,20.89z M38.53,24.01c-0.06,0.56-0.19,1.68-0.25,2.24c0.65-0.01,1.94-0.04,2.59-0.05
			c0.06-0.65,0.2-1.96,0.27-2.61C40.49,23.69,39.18,23.9,38.53,24.01z"/>
	</g>
	<g>
		<path class="st0" d="M52.55,21.06c2.41-0.33,5.47-0.37,6.89,2.02c0.54,1.45,0.53,3.19-0.27,4.55c-1.6,2.55-5.13,1.93-7.61,1.31
			C48.76,26.99,49.19,22.14,52.55,21.06z M52.13,24.13c-0.04,2.98,2.52,2.82,4.7,2.43c-0.03-0.69-0.08-2.06-0.11-2.75
			C55.19,23.9,53.66,23.98,52.13,24.13z"/>
	</g>
</g>
</svg>
